<?xml version="1.0" standalone="no"?>
<!DOCTYPE svg PUBLIC "-//W3C//DTD SVG 1.1//EN" "http://www.w3.org/Graphics/SVG/1.1/DTD/svg11.dtd" >
<svg>
<metadata>
Created by FontForge 20090914 at Wed Feb 24 08:22:54 2016
 By www-data
Generated by Fontographer 4.7
</metadata>
<defs>
<font id="Aubrey" horiz-adv-x="580" >
  <font-face 
    font-family="Aubrey"
    font-weight="400"
    font-stretch="normal"
    units-per-em="1000"
    panose-1="0 0 4 0 0 0 0 0 0 0"
    ascent="800"
    descent="-200"
    x-height="636.999"
    cap-height="796"
    bbox="-19 -252 1063 906.001"
    underline-thickness="20"
    underline-position="-123"
    unicode-range="U+0020-U+2212"
  />
<missing-glyph horiz-adv-x="500" 
d="M63 0v800h375v-800h-375zM125 63h250v675h-250v-675z" />
    <glyph glyph-name=".notdef" horiz-adv-x="500" 
d="M63 0v800h375v-800h-375zM125 63h250v675h-250v-675z" />
    <glyph glyph-name="space" unicode=" " horiz-adv-x="200" 
 />
    <glyph glyph-name="exclam" unicode="!" horiz-adv-x="168" 
d="M115 57c0 -16 -5.66699 -29.5 -17 -40.5s-24.666 -16.5 -39.999 -16.5c-16 0 -29.667 5.5 -41 16.5s-17 24.5 -17 40.5s5.66699 29.667 17 41s25 17 41 17c15.333 0 28.666 -5.66699 39.999 -17s17 -25 17 -41zM117 808l-15 -180.999l-26 -322
c-2.66699 -27.333 -5 -50.333 -7 -69c-4.66699 -38.667 -8.66699 -58 -12 -58c-6 0 -9.33301 5 -10 15c-2 15.333 -16.667 196 -44 542c-0.666992 2.66699 -1 5.66699 -1 9c0 16 9.66699 29 29 39c12 5.33301 40.667 13.666 86 24.999z" />
    <glyph glyph-name="quotedbl" unicode="&#x22;" horiz-adv-x="246" 
d="M99 857c-0.666992 -73.333 -27.667 -126.999 -81 -160.999c-12 -6.66699 -18 -7.33398 -18 -2.00098c0 2 1 5.33301 3 10c19.333 31.333 29 61 29 89c0 42.667 7 64 21 64h46zM194 857.001c-0.666992 -73.333 -27.667 -126.999 -81 -160.999
c-12 -6.66699 -18 -7.33398 -18 -2.00098c0 2 1.33301 5.33301 4 10c18.667 31.333 28 61 28 89c0 42.667 7 64 21 64h46z" />
    <glyph glyph-name="numbersign" unicode="#" horiz-adv-x="511" 
d="M403 594c27.333 7.33301 47.0029 22.334 59.0029 45.001h-73l33 120c1.33301 6 2 11.333 2 16c0 14 -6 21.333 -18 22h-46l-29 -132c-4 -19.333 -15.333 -29.666 -34 -30.999h-90l46 163h-41c-18 -4 -29.667 -17 -35 -39l-32 -122c-16 0 -34 -0.333008 -54 -1
c-22 -2.66699 -36 -10.667 -42 -24c-4.66699 -8.66699 -12.334 -25.334 -23.001 -50.001l102 10l-23 -75c-6 -14 -16.833 -22.333 -32.5 -25s-26.167 -5.33398 -31.5 -8.00098c-11.333 -5.33301 -20 -15 -26 -29c-4.66699 -11.333 -10 -23.666 -16 -36.999l81 7l-40 -161
c28 3.33301 49 22.333 63 57c7.33301 24 15.166 48 23.499 72s21.166 37 38.499 39l112 10l-31 -131c-1.33301 -6.66699 -2 -13 -2 -19c0 -20 9.33301 -30.667 28 -32l52 174c0 9.33301 5.66699 14.666 17 15.999l33 6c9.33301 -2 30.333 10.667 63 38h-94l27 96
c1.33301 10.667 12.333 19 33 25zM297.003 500.001c-8 -18 -21.333 -27.667 -40 -29h-98l23 76c6 18 19.333 29 40 33c10 1.33301 42.333 4 97 8z" />
    <glyph glyph-name="dollar" unicode="$" horiz-adv-x="494" 
d="M439 583c2 13.333 3.00098 25.3291 3.00098 35.9961c0 43.333 -12.667 69.333 -38 78c-38.667 6.66699 -87.334 8.33398 -146.001 5.00098c0.666992 14 1 26.667 1 38c0 44 -5 67.667 -15 71c-12 0 -15.667 -37 -11 -111c-40 -8 -63.333 -13.333 -70 -16
c-58 -21.333 -97.667 -50 -119 -86c-12.667 -21.333 -19 -44.666 -19 -69.999c0 -20.667 4.33301 -40 13 -58c18 -38 56 -65.333 114 -82c29.333 -8.66699 49 -15 59 -19c21.333 -7.33301 40 -16.666 56 -27.999c38 -26.667 57 -62 57 -106c0 -42 -25.667 -72.333 -77 -91
c-29.333 -10.667 -58.666 -16 -87.999 -16c-20 0 -43 6.66699 -69 20c-42 21.333 -72.333 54.333 -91 99v-83c0 -22 11.333 -38.333 34 -49c25.333 -11.333 60.666 -17 105.999 -17c26.667 0 56.334 2 89.001 6c-0.666992 -68 3.66602 -104.667 12.999 -110
c6.66699 0 10.667 7 12 21c0.666992 10 1 40.667 1 92c47.333 6 89.666 25.333 126.999 58c40 35.333 60 76 60 122c0 27.333 -8 54 -24 80c-19.333 32.667 -51.666 58.334 -96.999 77.001l-119 43c-36 15.333 -54 40.333 -54 75c0 23.333 8.66699 46.333 26 69
c19.333 25.333 53.333 40 102 44c31.333 2.66699 55.333 0 72 -8c7.33301 -3.33301 26 -19.333 56 -48z" />
    <glyph glyph-name="percent" unicode="%" horiz-adv-x="799" 
d="M597 342c-42 0 -77.667 -16.667 -107 -50s-44 -73.666 -44 -120.999c0 -46.667 14.667 -86.667 44 -120s65 -50 107 -50c41.333 0 76.666 16.667 105.999 50s44 73.333 44 120c0 47.333 -14.667 87.666 -44 120.999s-64.666 50 -105.999 50zM603 27
c-23.333 0 -43 14.167 -59 42.5s-24 62.5 -24 102.5s8 74.167 24 102.5s35.667 42.5 59 42.5c22.667 0 42.167 -14.167 58.5 -42.5s24.5 -62.5 24.5 -102.5s-8.16699 -74.167 -24.5 -102.5s-35.833 -42.5 -58.5 -42.5zM592 780c-20 -10 -59.998 -18.001 -119.998 -24.001
l-126 -10c-29.333 -2.66699 -74.333 5.33301 -135 24c-19.333 9.33301 -39.333 14 -60 14c-42 0 -77.667 -16.667 -107 -50s-44 -73.666 -44 -120.999s14.667 -87.666 44 -120.999s65 -50 107 -50c41.333 0 76.666 16.667 105.999 50s44 73.666 44 120.999
c0 35.333 -8.66699 67.333 -26 96c11.333 8 24.666 11 39.999 9c22.667 -2 46.667 -3 72 -3c78 0 133.667 8.66699 167 26l-403 -715c-4.66699 -8 -7 -14.667 -7 -20c0 -8 7 -8.33301 21 -1l448 750c2.66699 4.66699 4 9 4 13c0 8.66699 -5 13 -15 13
c-2.66699 0 -6 -0.333008 -10 -1zM157.002 467.999c-22.667 0 -42.167 14.333 -58.5 43s-24.5 63 -24.5 103s8.16699 74.167 24.5 102.5s35.833 42.5 58.5 42.5s42.167 -14.167 58.5 -42.5s24.5 -62.5 24.5 -102.5s-8.16699 -74.333 -24.5 -103s-35.833 -43 -58.5 -43z" />
    <glyph glyph-name="ampersand" unicode="&#x26;" horiz-adv-x="712" 
d="M621 443l-153.999 -0.00195312c-9.33301 0 -14.333 -3.66699 -15 -11c0 -9.33301 7 -14 21 -14h48c0.666992 -108 -2 -179 -8 -213c-4.66699 -22 -10.334 -33 -17.001 -33c-4.66699 0 -11.334 6 -20.001 18l-215 294c10.667 4.66699 22 10.334 34 17.001
c76.667 42.667 112 99 106 169c-4 43.333 -28 79.333 -72 108c-33.333 22 -67.666 33 -102.999 33c-34 0 -64.667 -7.66699 -92 -23c-30 -16.667 -51 -39.667 -63 -69c-9.33301 -24 -14 -47 -14 -69c0 -35.333 12.333 -71 37 -107c15.333 -23.333 35 -46.666 59 -69.999
c2 -0.666992 3 -1.66699 3 -3c0 -4 -5 -9.66699 -15 -17c-94 -62.667 -141 -136.667 -141 -222c0 -38.667 10 -78.667 30 -120c34.667 -72 120.334 -111 257.001 -117c82 0 150.667 35 206 105l2 -3c1.33301 -1.33301 6.33301 -7 15 -17
c21.333 -23.333 37.333 -39.666 48 -48.999c22.667 -20.667 41.667 -32.334 57 -35.001l10 -1l-93 123c-4.66699 3.33301 -7 8.33301 -7 15s2.33301 14.667 7 24c11.333 20 24.333 55.333 39 106c18.667 62.667 28 113.667 28 153h40c13.333 0 20.666 4.33301 21.999 13
c0 10 -13.333 15 -40 15zM235.001 780.998c20.667 0 38.5 -12.0029 53.5 -36.0029s22.5 -50.333 22.5 -79c0 -14 -2.33301 -27 -7 -39c-10 -25.333 -28.667 -62.666 -56 -111.999c-2.66699 -6.66699 -5.66699 -10 -9 -10c-4 0 -7.66699 3.33301 -11 10
c-45.333 52.667 -68 104.334 -68 155.001c0 30.667 8 56.834 24 78.501s33 32.5 51 32.5zM452.001 84.9951c-30.667 -26.667 -69.001 -40.668 -115.001 -42.001c-42.667 -2 -83 7 -121 27c-40 21.333 -69 50.333 -87 87c-16 31.333 -24 67 -24 107
c0 54.667 12 101.334 36 140.001c3.33301 5.33301 10.333 13.333 21 24c12.667 14 20.334 19.333 23.001 16l265 -309c9.33301 -8 14 -16.667 14 -26c0 -8.66699 -4 -16.667 -12 -24z" />
    <glyph glyph-name="quotesingle" unicode="'" horiz-adv-x="181" 
d="M130 856c-0.666992 -72.667 -36 -126 -106 -160c-16 -6.66699 -24 -7.33398 -24 -2.00098c0 2.66699 1.66699 6 5 10c24.667 30.667 37 60.334 37 89.001c0 23.333 1.66699 39 5 47c3.33301 10.667 11 16 23 16h60z" />
    <glyph glyph-name="parenleft" unicode="(" horiz-adv-x="236" 
d="M164 891c9.33301 10 15.667 15.001 19 15.001s4.33301 -3 3 -9c-0.666992 -4 -6.66699 -22 -18 -54c-16 -44 -38.667 -110.667 -68 -200c-23.333 -78.667 -35 -159 -35 -241c0 -74.667 9.33301 -152 28 -232c13.333 -54.667 27 -101 41 -139
c5.33301 -14.667 15 -37.334 29 -68.001c15.333 -32.667 22.333 -49.667 21 -51c-1.33301 -4 -3.33301 -6 -6 -6c-12 0 -30.667 20 -56 60c-33.333 52.667 -56 94.667 -68 126c-39.333 106 -57.333 209.333 -54 310c2 52 10.667 107.333 26 166c18 72.667 42.333 142 73 208
c17.333 38 39 76.333 65 115z" />
    <glyph glyph-name="parenright" unicode=")" horiz-adv-x="236" 
d="M21 -78c-9.33301 -10.667 -16 -16.001 -20 -16.001c-2.66699 0 -3.66699 3.33301 -3 10c0.666992 4 7 22 19 54l68 200c23.333 78 35 158.333 35 241c0 74 -9.66699 151.333 -29 232c-12.667 54 -26.334 100 -41.001 138c-5.33301 14.667 -15.166 37.834 -29.499 69.501
s-21.166 48.5 -20.499 50.5c1.33301 3.33301 3.66602 5 6.99902 5c12 0 30.667 -20 56 -60c33.333 -52 56 -93.667 68 -125c39.333 -106.667 57 -210 53 -310c-2 -52 -10.333 -107.667 -25 -167c-18 -72 -42.333 -141.333 -73 -208c-17.333 -37.333 -39 -75.333 -65 -114z
" />
    <glyph glyph-name="asterisk" unicode="*" horiz-adv-x="282" 
d="M214 816l-87.002 -59.002c-1.33301 83.333 -7.66602 125 -18.999 125c-10.667 0 -16.667 -39.333 -18 -118l-64 45c-6.66699 4.66699 -12.334 7 -17.001 7c-6 0 -9 -3 -9 -9s3.66699 -12.333 11 -19l79 -55v0l-75 -51c-9.33301 -5.33301 -14 -11 -14 -17
c0 -5.33301 4 -8 12 -8c4.66699 0 9.66699 1.33301 15 4l63 42c2.66699 -62.667 8.33398 -94 17.001 -94c9.33301 0 15.333 33.333 18 100c55.333 -38 86 -57 92 -57c5.33301 0.666992 8 3.33398 8 8.00098c0 2.66699 -1 6.33398 -3 11.001l-89 62
c62 42.667 94 66.667 96 72c2.66699 9.33301 -2.66602 13 -15.999 11z" />
    <glyph glyph-name="plus" unicode="+" horiz-adv-x="442" 
d="M372 341l-157.001 11l13 229c-12.667 -0.666992 -27 -2 -43 -4s-23.667 -15 -23 -39c1.33301 -53.333 3.66602 -111.333 6.99902 -174c-0.666992 -5.33301 -2.66699 -8.33301 -6 -9l-163 12c1.33301 -12.667 2.33301 -27 3 -43s11 -23.667 31 -23
c42 1.33301 87.667 3.66602 137 6.99902c0 -42 3 -104 9 -186c2.66699 -18 6.33398 -27 11.001 -27c3.33301 0 7 7.66699 11 23l10 183c1.33301 6.66699 4.33301 9.66699 9 9v0c36.667 0 87.334 3 152.001 9c11.333 2.66699 17 6.33398 17 11.001c0 3.33301 -6 7 -18 11z
" />
    <glyph glyph-name="comma" unicode="," horiz-adv-x="220" 
d="M169 118c-1.33301 -84 -47.667 -145.333 -139 -184c-20 -8 -30 -9 -30 -3c0 3.33301 2 7.33301 6 12c32.667 35.333 49 69.333 49 102c0 26.667 1.66699 44.667 5 54c4.66699 12.667 15 19 31 19h78z" />
    <glyph glyph-name="period" unicode="." horiz-adv-x="167" 
d="M115 57c0 -15.333 -5.5 -28.666 -16.5 -39.999s-24.5 -17 -40.5 -17s-29.667 5.66699 -41 17s-17 24.666 -17 39.999c0 16 5.66699 29.667 17 41s25 17 41 17s29.5 -5.66699 40.5 -17s16.5 -25 16.5 -41z" />
    <glyph glyph-name="slash" unicode="/" horiz-adv-x="403" 
d="M1 -20l291 827h42c12.667 0 19 -6.66699 19 -20c0 -6.66699 -1.5 -13.667 -4.5 -21l-32.5 -82l-221 -555c-9.33301 -25.333 -24.333 -63.333 -45 -114c-10.667 -23.333 -27 -35 -49 -35z" />
    <glyph glyph-name="zero" unicode="0" horiz-adv-x="583" 
d="M264 748c-73.333 0 -135.833 -36.833 -187.5 -110.5s-77.5 -162.5 -77.5 -266.5s25.833 -192.833 77.5 -266.5s114.167 -110.5 187.5 -110.5s136 36.833 188 110.5s78 162.5 78 266.5s-26 192.833 -78 266.5s-114.667 110.5 -188 110.5zM264 24c-42 0 -78 34 -108 102
s-45 149.667 -45 245c0 96 15 177.833 45 245.5s66 101.5 108 101.5c42.667 0 79 -33.833 109 -101.5s45 -149.5 45 -245.5c0 -95.333 -15 -177 -45 -245s-66.333 -102 -109 -102z" />
    <glyph glyph-name="one" unicode="1" horiz-adv-x="252" 
d="M200 0l0.00195312 722c0 12.667 -5 19 -15 19c-5.33301 0 -11 -1.33301 -17 -4c-20.667 -10.667 -73.334 -36.334 -158.001 -77.001c-6.66699 -3.33301 -10 -6.33301 -10 -9c0 -3.33301 4 -4.33301 12 -3c9.33301 2.66699 23.333 6.33398 42 11.001
c11.333 2 17.666 3 18.999 3c7.33301 0 11 -5 11 -15c-1.33301 -42.667 -1.33301 -246.667 0 -612c0 -22 10 -33.667 30 -35h86z" />
    <glyph glyph-name="two" unicode="2" horiz-adv-x="585" 
d="M0 1l486 -0.000976562c29.333 0 45 8.33301 47 25v90c-23.333 -41.333 -50.333 -69 -81 -83c-13.333 -4.66699 -39.666 -7.66699 -78.999 -9c-28 -1.33301 -62.333 -1.33301 -103 0c-50.667 0.666992 -69.334 1 -56.001 1h-124c-24.667 -2 -37 0.666992 -37 8
c0 5.33301 5.66699 12.333 17 21c30.667 21.333 79.334 57 146.001 107c73.333 56 117.666 91.333 132.999 106c8 7.33301 19.667 18.666 35 33.999c74.667 76.667 112 151.667 112 225c0 18.667 -2.66699 37.334 -8 56.001c-14.667 48 -41.167 87.167 -79.5 117.5
s-82.5 46.833 -132.5 49.5c-88.667 4 -173 -38.333 -253 -127c-10.667 -11.333 -16 -19.666 -16 -24.999c0 -2.66699 1.33301 -4.33398 4 -5.00098c5.33301 -1.33301 19 7 41 25c73.333 58.667 136.333 88 189 88c50 0 88.333 -20 115 -60
c18.667 -27.333 28 -57.666 28 -90.999c0 -58 -27.333 -122.333 -82 -193c-21.333 -27.333 -55 -67.333 -101 -120l-83 -83l-80 -70c-25.333 -22.667 -38 -43 -38 -61v-26z" />
    <glyph glyph-name="three" unicode="3" horiz-adv-x="555" 
d="M228 700c-26 3.33301 -52.167 0.169922 -78.5 -9.49707s-51.833 -23.167 -76.5 -40.5c-8 -7.33301 -20.667 -17.333 -38 -30c-12.667 -8.66699 -20.667 -13 -24 -13c-2 0 -4 0.666992 -6 2c-4 3.33301 1 11.666 15 24.999c24 23.333 39.333 38 46 44
c17.333 14.667 34.5 26.667 51.5 36s31.833 16.333 44.5 21c34 11.333 73 15.666 117 12.999c39.333 -2.66699 75.833 -14.834 109.5 -36.501s57.5 -50.167 71.5 -85.5c8.66699 -20.667 12.667 -42 12 -64c-0.666992 -36 -9.33398 -66.833 -26.001 -92.5
s-41.167 -47.167 -73.5 -64.5s-64.5 -26.666 -96.5 -27.999c44.667 1.33301 87.334 -6.66699 128.001 -24c32.667 -14 57.334 -33.5 74.001 -58.5s25 -52.5 25 -82.5c0 -31.333 -8.66699 -63 -26 -95c-34 -62.667 -92.333 -101.334 -175 -116.001
c-32.667 -6 -77.667 -7.66699 -135 -5c-38.667 2 -75.334 9.33301 -110.001 22c-20 7.33301 -35.667 15.333 -47 24c-6.66699 5.33301 -10 10 -10 14c0 2 0.666992 3.66699 2 5c1.33301 0.666992 10.333 -2.66602 27 -9.99902c49.333 -22.667 96 -34 140 -34
c28 0 59.333 6.66699 94 20c76 30 114 81 114 153c0 43.333 -13.333 79.333 -40 108c-17.333 18.667 -45.333 34.667 -84 48c-31.333 10.667 -47 19.667 -47 27c0 3.33301 3.33301 6.33301 10 9c25.333 10 50 27.5 74 52.5s41.333 50.167 52 75.5
c6 15.333 9 31.666 9 48.999c0 51.333 -19 90.333 -57 117c-18.667 12.667 -40.667 20.667 -66 24z" />
    <glyph glyph-name="four" unicode="4" horiz-adv-x="653" 
d="M575 226l-67.002 0.000976562v516h-99c-9.33301 1.33301 -20.333 -6.33398 -33 -23.001c-6.66699 -8 -130 -170.333 -370 -487c-4 -5.33301 -6 -10 -6 -14c0 -9.33301 9.66699 -14.666 29 -15.999h326c23.333 3.33301 36 -8 38 -34v-146
c2.66699 -14 11.334 -21.333 26.001 -22h89v180c-4 14 3.33301 21.333 22 22h57c8.66699 0 13.334 4.66699 14.001 14c0 5.33301 -2.33301 8.66602 -7 9.99902h-19zM356.998 236.001c-7.33301 0.666992 -47.999 2.66699 -121.999 6l-121 6l262 434
c5.33301 8.66699 9.66602 13 12.999 13c4 0 6 -5.33301 6 -16v-420c2 -10.667 -3.66699 -17.667 -17 -21c-5.33301 -1.33301 -12.333 -2 -21 -2z" />
    <glyph glyph-name="five" unicode="5" horiz-adv-x="565" 
d="M95 741l399 -7.00098c15.333 0 23 -1.66699 23 -5c0 -2.66699 -4 -6 -12 -10l-368 -35c-22.667 -4 -36.167 -18.167 -40.5 -42.5l-31.5 -180.5c0.666992 2 16 6 46 12c26.667 4.66699 53.667 7 81 7c74 0 139.667 -16.667 197 -50c10.667 -6 25.667 -15.333 45 -28
c30.667 -25.333 54 -60 70 -104c9.33301 -26 12.333 -54.333 9 -85c-1.33301 -21.333 -4.33301 -39.666 -9 -54.999c-12.667 -42 -46.667 -81 -102 -117c-50 -32.667 -112 -49 -186 -49c-72.667 0 -136.667 15 -192 45c-18 9.33301 -26 17 -24 23
c1.33301 6 8.33301 5.66699 21 -1c49.333 -25.333 104.666 -38 165.999 -38c46 0 85.333 9.66699 118 29c30 17.333 53 37.333 69 60c18 26 27 53.667 27 83c0 32.667 -11 62.334 -33 89.001c-38 44.667 -97.333 67 -178 67c-38 0 -76.667 -5 -116 -15
c-20 -4.66699 -40 -11.334 -60 -20.001l37 389c-1.33301 23.333 13.334 36 44.001 38z" />
    <glyph glyph-name="six" unicode="6" horiz-adv-x="559" 
d="M496 339c-12.667 41.333 -34.0029 74.001 -64.0029 98.001c-39.333 32 -86.666 48 -141.999 48c-28.667 0 -58 -8 -88 -24s-51.667 -34.333 -65 -55c-12 -18 -18 -22 -18 -12c0 3.33301 1 8.66602 3 15.999c6 47.333 30 99.666 72 156.999c16 21.333 44.667 54.333 86 99
c10.667 11.333 30 26.333 58 45c21.333 14.667 31 23.667 29 27c-1.33301 2.66699 -4.33301 4 -9 4c-25.333 0 -76.333 -32 -153 -96c-27.333 -22 -53.666 -47.667 -78.999 -77c-52.667 -59.333 -87 -114 -103 -164c-16 -52 -23.667 -99.667 -23 -143
c0.666992 -73.333 22.334 -133.666 65.001 -180.999c23.333 -26 49.333 -47 78 -63c32 -17.333 67.667 -26 107 -26c50 0 95.667 14 137 42c80 54 120 128.333 120 223c0 28 -3.66699 55.333 -11 82zM401.997 234.001c-2 -60 -17.667 -110.667 -47 -152
s-63.333 -61.333 -102 -60c-38.667 2 -71 24.667 -97 68s-37.667 95 -35 155c2 60 17.667 110.667 47 152s63.333 61.333 102 60c38.667 -2 71 -24.667 97 -68s37.667 -95 35 -155z" />
    <glyph glyph-name="seven" unicode="7" horiz-adv-x="581" 
d="M0 719c2 14.667 10.667 22.667 26 24h504v-32c2.66699 -12.667 -4.66602 -38 -21.999 -76c-8 -18.667 -116 -230 -324 -634h-74c-13.333 0 -20 5.33301 -20 16c0 6 2.33301 13.333 7 22c7.33301 13.333 113.666 227.333 318.999 642c6 8.66699 9 16 9 22
c0 11.333 -8.33301 17.333 -25 18c-178.667 0 -275 -1.33301 -289 -4s-28.667 -9.5 -44 -20.5s-26.333 -22.167 -33 -33.5c-4.66699 -6.66699 -16 -25 -34 -55v111z" />
    <glyph glyph-name="eight" unicode="8" horiz-adv-x="557" 
d="M339 372c-1.33301 2 -2 3.99902 -2 5.99902s0.666992 4.66699 2 8c39.333 14.667 71.166 37.667 95.499 69s36.5 66.333 36.5 105c0 52 -21.167 96.5 -63.5 133.5s-93.5 55.5 -153.5 55.5s-111.167 -18.5 -153.5 -55.5s-63.5 -81.5 -63.5 -133.5
c0 -34.667 9.83301 -66.667 29.5 -96s46.167 -52.333 79.5 -69c0.666992 0 3.33398 -1.5 8.00098 -4.5s6.66699 -6.83301 6 -11.5c0 -3.33301 -2.66699 -7 -8 -11c-46 -15.333 -83 -39.166 -111 -71.499s-42 -68.166 -42 -107.499c0 -54 24.667 -100 74 -138
s109 -57 179 -57s129.833 19 179.5 57s74.5 84 74.5 138c0 41.333 -15.5 78.666 -46.5 111.999s-71.167 57 -120.5 71zM256 723.999c28.667 0 53.334 -15.5 74.001 -46.5s31 -68.5 31 -112.5c0 -43.333 -10.333 -80.5 -31 -111.5s-45.334 -46.5 -74.001 -46.5
c-29.333 0 -54.333 15.5 -75 46.5s-31 68.167 -31 111.5c0 44 10.333 81.5 31 112.5s45.667 46.5 75 46.5zM253 31.999c-42 0 -78 15.833 -108 47.5s-45 70.167 -45 115.5s15 83.833 45 115.5s66 47.5 108 47.5s78 -15.833 108 -47.5s45 -70.167 45 -115.5
s-15 -83.833 -45 -115.5s-66 -47.5 -108 -47.5z" />
    <glyph glyph-name="nine" unicode="9" horiz-adv-x="589" 
d="M514 576c-20.667 53.333 -54.5 95.333 -101.5 126s-99.167 46 -156.5 46c-44.667 0 -83.667 -9 -117 -27c-42.667 -23.333 -79 -63 -109 -119c-20 -38 -30 -78.667 -30 -122c0 -49.333 13 -94.333 39 -135s62 -68.334 108 -83.001c22 -6.66699 48.333 -10.667 79 -12
c38.667 -0.666992 75.334 5.66602 110.001 18.999c30 12 53 28.333 69 49c6 8.66699 10.333 13 13 13c2 0 3 -2.33301 3 -7c0 -2 -0.333008 -5 -1 -9c-3.33301 -15.333 -11 -32.666 -23 -51.999c-40.667 -63.333 -88.334 -119 -143.001 -167
c-34 -29.333 -67 -56.333 -99 -81c-7.33301 -6 -11 -10.333 -11 -13c0 -2 1.66699 -3 5 -3c6 0 17 4.66699 33 14c4 2 20.667 12.667 50 32c91.333 60 159 116.333 203 169c67.333 80.667 101 164.334 101 251.001c0 37.333 -7.33301 74.333 -22 111zM422 497
c-1.33301 -60 -17.1641 -110.833 -47.4971 -152.5s-66.5 -62.167 -108.5 -61.5c-41.333 1.33301 -76 23.666 -104 66.999s-41.333 95 -40 155s17.166 110.833 47.499 152.5s66.166 62.167 107.499 61.5c41.333 -1.33301 76.166 -23.666 104.499 -66.999
s41.833 -95 40.5 -155z" />
    <glyph glyph-name="colon" unicode=":" horiz-adv-x="167" 
d="M115 57c0 -16 -5.66699 -29.667 -17 -41s-24.666 -17 -39.999 -17c-16 0 -29.667 5.66699 -41 17s-17 25 -17 41s5.66699 29.5 17 40.5s25 16.5 41 16.5c15.333 0 28.666 -5.5 39.999 -16.5s17 -24.5 17 -40.5zM115 404c0 -15.333 -5.66699 -28.666 -17 -39.999
s-24.666 -17 -39.999 -17c-16 0 -29.667 5.66699 -41 17s-17 24.666 -17 39.999c0 16 5.66699 29.667 17 41s25 17 41 17c15.333 0 28.666 -5.66699 39.999 -17s17 -25 17 -41z" />
    <glyph glyph-name="semicolon" unicode=";" horiz-adv-x="218" 
d="M166 405c0 -16 -5.66699 -29.5 -17 -40.5s-24.666 -16.5 -39.999 -16.5c-16 0 -29.667 5.5 -41 16.5s-17 24.5 -17 40.5s5.66699 29.667 17 41s25 17 41 17c15.333 0 28.666 -5.66699 39.999 -17s17 -25 17 -41zM165 115c-0.666992 -82 -45.667 -142.001 -135 -180.001
c-20 -8 -30 -9 -30 -3c-0 2.66699 2.33301 6.33398 7 11.001c31.333 35.333 47 68.666 47 99.999c0 26.667 1.66699 44.334 5 53.001c4.66699 12.667 14.667 19 30 19h76z" />
    <glyph glyph-name="less" unicode="&#x3c;" horiz-adv-x="255" 
d="M195 562l-24.999 -23.001l-158 -145c-8 -7.33301 -12 -14.333 -12 -21c0 -7.33301 9 -18.666 27 -33.999l175 -148c1.33301 2 2 4.33301 2 7c0 7.33301 -4 17 -12 29c-6.66699 8.66699 -49.334 58 -128.001 148c89.333 98 133 160.333 131 187z" />
    <glyph glyph-name="equal" unicode="=" horiz-adv-x="351" 
d="M0 433l284.999 -27c8 0 12.333 -3.33301 13 -10c0 -8.66699 -24 -14.334 -72 -17.001l-201 -12c-15.333 -1.33301 -23.666 6.33398 -24.999 23.001v43zM-0.000976562 295l283.999 -26c8.66699 0 13.334 -3.66699 14.001 -11c0 -8.66699 -24 -14.334 -72 -17.001l-202 -12
c-14.667 -1.33301 -22.667 6.33398 -24 23.001v43z" />
    <glyph glyph-name="greater" unicode="&#x3e;" horiz-adv-x="256" 
d="M9 562l25.999 -24.001l158 -145c8 -7.33301 12 -14 12 -20c0 -8 -8.5 -19.167 -25.5 -33.5l-176.5 -148.5c-2 1.33301 -3 3.33301 -3 6c0 7.33301 4.33301 17 13 29c6.66699 8.66699 49.334 58.334 128.001 149.001c-89.333 98 -133.333 160.333 -132 187z" />
    <glyph glyph-name="question" unicode="?" horiz-adv-x="460" 
d="M231 57c0 -16 -5.66699 -29.5 -17 -40.5s-25 -16.5 -41 -16.5s-29.5 5.5 -40.5 16.5s-16.5 24.5 -16.5 40.5s5.5 29.5 16.5 40.5s24.5 16.5 40.5 16.5s29.667 -5.5 41 -16.5s17 -24.5 17 -40.5zM7 659c-8.66699 10 -10.001 20.002 -4.00098 30.002
c47.333 73.333 112.333 112 195 116c46 2.66699 85 -4 117 -20c68.667 -33.333 99.667 -101.333 93 -204c0 -6.66699 -1 -14.334 -3 -23.001c-10 -39.333 -32 -78 -66 -116c-40 -44.667 -89 -81 -147 -109c-12.667 -6 -18.667 -17.333 -18 -34c2 -77.333 -1 -117 -9 -119
c-5.33301 -0.666992 -9.16602 1.33301 -11.499 6s-6.83301 21.667 -13.5 51c-9.33301 38.667 -14 64.667 -14 78c0.666992 8 5.33398 15.667 14.001 23l23 16c41.333 30.667 74.666 66 99.999 106c28 45.333 41.667 91.333 41 138
c-0.666992 35.333 -7.33398 65.333 -20.001 90c-21.333 39.333 -55.333 61.333 -102 66c-65.333 7.33301 -123.666 -24.334 -174.999 -95.001z" />
    <glyph glyph-name="at" unicode="@" horiz-adv-x="662" 
d="M146 -6h283h-283zM609 532c-6 66.667 -27.335 123.331 -64.002 169.998c-30.667 38.667 -64.667 67 -102 85c-32.667 16 -68.667 24 -108 24c-55.333 0 -107.666 -18.333 -156.999 -55c-44 -32.667 -79.667 -75.667 -107 -129c-19.333 -37.333 -33.666 -70 -42.999 -98
c-18.667 -56.667 -28 -114.667 -28 -174c0 -61.333 10 -120.666 30 -177.999c22 -61.333 50.667 -107.166 86 -137.499s75.333 -45.5 120 -45.5c10.667 0 22.334 1 35.001 3c20 2.66699 39.667 10.334 59 23.001c12.667 7.33301 30.334 20.666 53.001 39.999
c6 6 9 11.333 9 16c-0.666992 1.33301 -1.33398 2 -2.00098 2c-6.66699 -0.666992 -14.167 -3.83398 -22.5 -9.50098s-32.5 -14.834 -72.5 -27.501c-10 -3.33301 -20.667 -5 -32 -5c-31.333 0 -61.333 9 -90 27c-20 12.667 -37.667 29 -53 49
c-46 59.333 -69 134.333 -69 225c0 57.333 13.667 126 41 206c22.667 68.667 50.667 123.667 84 165c42 51.333 90.333 77 145 77c8.66699 0 17.334 -0.666992 26.001 -2c131.333 -21.333 201.333 -120.666 210 -297.999c2 -40.667 -1.66699 -79.334 -11 -116.001
c-10.667 -38.667 -26 -68 -46 -88c-7.33301 -8 -14.333 -12 -21 -12c-10.667 0 -16 14 -16 42v256c0 2 -8.33301 2 -25 0c-16 -2 -25 -4.16699 -27 -6.5s-3.33301 -12.5 -4 -30.5s-3.33398 -27 -8.00098 -27c-4 0 -9 3.33301 -15 10c-33.333 34.667 -68 52 -104 52
c-19.333 0 -36.166 -6.33301 -50.499 -19s-26.5 -30 -36.5 -52c-16.667 -34 -27 -73.333 -31 -118c-2 -22.667 -1.83301 -42.167 0.5 -58.5s4.83301 -28.166 7.5 -35.499c4 -14.667 9.66699 -25.334 17 -32.001c12 -10 28 -15 48 -15c17.333 0 33 3.33301 47 10
c33.333 16.667 64.333 56.334 93 119.001c7.33301 14.667 12.666 27 15.999 37c-2.66699 -8 -3.33398 -22 -2.00098 -42c2 -23.333 3.66699 -46.666 5 -69.999c5.33301 -29.333 17.333 -47.333 36 -54c10 -3.33301 20 -5 30 -5c42.667 0 81 33.333 115 100
c13.333 26 23 53.667 29 83c7.33301 36 9 75.667 5 119zM335.998 332.997c-30.667 -40.667 -59.3311 -60.334 -85.998 -59.001c-28.667 1.33301 -43 29.333 -43 84c0 56 13 106.333 39 151c11.333 20 27.333 30 48 30c29.333 0 57 -16 83 -48
c7.33301 -9.33301 11.666 -18 12.999 -26c1.33301 -9.33301 -1.33398 -25.666 -8.00098 -48.999s-22 -51 -46 -83z" />
    <glyph glyph-name="A" unicode="A" horiz-adv-x="732" 
d="M351 811l-42.998 0.00195312c-6 0 -11 -0.666992 -15 -2c-11.333 -2.66699 -18 -7.33398 -20 -14.001l-270 -795h43c9.33301 0 17.666 3.33301 24.999 10c3.33301 2.66699 8.33301 9 15 19l54 181h268c15.333 0 27 -3.33301 35 -10
c5.33301 -5.33301 11.666 -16.333 18.999 -33s18.333 -45.334 33 -86.001c18 -59.333 39.667 -86.333 65 -81h116zM416.002 240.002l-267.001 0.000976562l102 414c4 14.667 9 22 15 22c6.66699 0 13.334 -7.33301 20.001 -22l147 -387c2.66699 -4.66699 4 -9 4 -13
c0 -8.66699 -7 -13.334 -21 -14.001z" />
    <glyph glyph-name="B" unicode="B" horiz-adv-x="591" 
d="M513 288c-37.333 56 -100 83.9961 -188 83.9961c-12 0 -24.667 -0.333008 -38 -1c41.333 5.33301 78.666 26.333 111.999 63c13.333 14.667 27.5 35.834 42.5 63.501s22.5 55.834 22.5 84.501c0 66.667 -32 121.334 -96 164.001c-48 32.667 -131.333 49 -250 49h-21
c-10 0.666992 -17.667 1 -23 1c-46 0 -70.667 -12.667 -74 -38s-4.33301 -58.333 -3 -99c2 -69.333 3 -102 3 -98v-561c121.333 0 192 0.333008 212 1c76.667 5.33301 133.667 13 171 23c66.667 18.667 111.334 50.334 134.001 95.001c14 28 21 56.667 21 86
c0 31.333 -8.33301 59 -25 83zM116 730.996c0 21.333 14.667 30.999 44 28.999c35.333 -4.66699 63.333 -11.667 84 -21c54.667 -24.667 89.667 -59.667 105 -105c7.33301 -21.333 11 -42.666 11 -63.999c0 -29.333 -7.33301 -54.666 -22 -75.999
c-60 -86.667 -134 -130.334 -222 -131.001v368zM293 52.9951c-48 -12 -90.665 -18.002 -127.998 -18.002c-16.667 0 -33 1 -49 3l1 245c0 18 2.83301 31.5 8.5 40.5s16.167 14.5 31.5 16.5c6 0.666992 24 0 54 -2c45.333 -2.66699 82.666 -11 111.999 -25
c16 -8 27 -14 33 -18c11.333 -6.66699 20.666 -14.667 27.999 -24c20.667 -27.333 31 -57.666 31 -90.999c0 -32.667 -10.667 -59.667 -32 -81s-51.333 -36.666 -90 -45.999z" />
    <glyph glyph-name="C" unicode="C" horiz-adv-x="624" 
d="M571 607c1.33301 7.33301 2.33984 20.333 3.00684 39c1.33301 30.667 -0.333984 54.667 -5.00098 72c-3.33301 13.333 -7 23 -11 29c-20 24.667 -63.667 43.334 -131 56.001c-43.333 8 -92 6 -146 -6c-48 -10.667 -90.333 -29 -127 -55
c-47.333 -33.333 -83 -80 -107 -140c-30 -76.667 -45.333 -153 -46 -229c-0.666992 -34 2.66602 -67.333 9.99902 -100c12.667 -58.667 33.167 -108.167 61.5 -148.5s65.666 -72.833 111.999 -97.5s94.166 -37 143.499 -37c42 0 81 9.33301 117 28
c30 16 59.667 36.333 89 61c17.333 15.333 25.666 25 24.999 29c0 2.66699 -1.33301 4 -4 4s-14 -7.33301 -34 -22c-17.333 -12.667 -31.666 -22 -42.999 -28c-26 -14 -55 -21 -87 -21c-58.667 0 -109 19.667 -151 59c-26 24 -46.667 52 -62 84
c-10 22 -18.333 50.333 -25 85c-10 56.667 -11.667 119 -5 187c4.66699 46 14.667 87 30 123c27.333 65.333 57.666 115.333 90.999 150c29.333 30.667 64.666 46 105.999 46c18 0 35.667 -3.33301 53 -10c27.333 -10.667 54.666 -33.334 81.999 -68.001
c12 -14.667 32.333 -44.667 61 -90z" />
    <glyph glyph-name="D" unicode="D" horiz-adv-x="623" 
d="M553 527c-28 96.667 -91.667 172.332 -191 226.999c-64.667 36 -140.334 53.333 -227.001 52c-24.667 -1.33301 -46 -5 -64 -11c-43.333 -13.333 -67.333 -36.666 -72 -69.999v-726c120 0 209 7 267 21c76.667 18.667 140.334 55.334 191.001 110.001
c76 81.333 114 172.666 114 273.999c0 40 -6 81 -18 123zM441 329.998c-12.667 -69.333 -38.999 -131.001 -78.999 -185.001c-24.667 -33.333 -73.334 -64.666 -146.001 -93.999c-12.667 -4.66699 -29.667 -8.66699 -51 -12l-53 -7v702c0 25.333 16.333 37 49 35
c40 -5.33301 80 -19.333 120 -42c60 -35.333 104.333 -85 133 -149c22.667 -50 34 -104.667 34 -164c0 -28 -2.33301 -56 -7 -84z" />
    <glyph glyph-name="E" unicode="E" horiz-adv-x="585" 
d="M533 652l0.00195312 86c0 36 -22.333 55.333 -67 58c-60.667 2 -186.334 2 -377.001 0c-55.333 0 -85 -27 -89 -81v-716h489c12 0 22 2.33301 30 7c9.33301 7.33301 14 18.666 14 33.999v107c-2.66699 -34.667 -28.334 -63 -77.001 -85
c-55.333 -21.333 -125.666 -32 -210.999 -32h-132v286c0 35.333 13 54.333 39 57h217c15.333 -4 23.333 2 24 18c-3.33301 4.66699 -14.666 7.33398 -33.999 8.00098h-244v308c0 35.333 15.667 54.333 47 57c78 0 110 0.333008 96 1
c51.333 -1.33301 99.666 -6.33301 144.999 -15c21.333 -5.33301 40.333 -12 57 -20c39.333 -19.333 63.666 -45.333 72.999 -78z" />
    <glyph glyph-name="F" unicode="F" horiz-adv-x="577" 
d="M0 0v743.999c-0 32.667 20.333 50 61 52c58.667 -0.666992 187.667 -0.666992 387 0c48 0 73.667 -23 77 -69v-72c-34 59.333 -86 94.666 -156 105.999c-34 2.66699 -102.333 6.33398 -205 11.001c-31.333 0.666992 -48.333 -17 -51 -53v-318l250 1
c13.333 -1.33301 20 -4.66602 20 -9.99902c0 -10.667 -4.33301 -16.667 -13 -18c4.66699 0.666992 -4.33301 1 -27 1h-193c-22.667 0 -35 -14 -37 -42v-287c4 -28.667 -5 -44 -27 -46h-86z" />
    <glyph glyph-name="G" unicode="G" horiz-adv-x="702" 
d="M585 621c2.66699 16.667 3.99512 32.002 3.99512 46.002c0 44.667 -9.66699 74.667 -29 90c-55.333 33.333 -113.666 50 -174.999 50c-41.333 0 -80.666 -7 -117.999 -21c-61.333 -22.667 -114.666 -61.667 -159.999 -117c-41.333 -50.667 -71.333 -108.334 -90 -173.001
c-9.33301 -33.333 -15 -66.333 -17 -99c-3.33301 -92.667 13.667 -171.667 51 -237c28.667 -51.333 67.334 -91 116.001 -119c60.667 -34.667 123.334 -52 188.001 -52c74 0 149.333 22.667 226 68v194c-4 15.333 3 23.666 21 24.999c9.33301 0 26.333 2.33301 51 7
c2 2.66699 3 5 3 7c0 8 -9.33301 12.333 -28 13h-273c-20 0 -31.333 -2.66699 -34 -8c-1.33301 -2 -2 -4 -2 -6c0 -8 8 -12 24 -12h78c28.667 4.66699 44 -14 46 -56c0 -51.333 -1.66699 -87.5 -5 -108.5s-8.33301 -37.833 -15 -50.5c-4 -8 -11.333 -16.333 -22 -25
s-20.334 -13.334 -29.001 -14.001c-10.667 -1.33301 -20.667 -2 -30 -2c-64.667 0 -118.334 30 -161.001 90c-52.667 75.333 -79 160.333 -79 255c0 22 1.33301 45 4 69c2 18.667 6 46.667 12 84c14 56.667 38.333 110.334 73 161.001c41.333 60 95.333 90 162 90
c30.667 0 59.334 -7 86.001 -21c46.667 -26 87.334 -68.667 122.001 -128z" />
    <glyph glyph-name="H" unicode="H" horiz-adv-x="675" 
d="M0 798v-797h78c23.333 0 35.666 12.667 36.999 38v331h341c32.667 0 50.334 -15 53.001 -45v-292c2 -21.333 13 -32 33 -32h82v797h-81c-22.667 2.66699 -34.667 -15 -36 -53v-346h-351c-25.333 -5.33301 -39 9.66699 -41 45v307c0 31.333 -13.333 47 -40 47h-75z" />
    <glyph glyph-name="I" unicode="I" horiz-adv-x="168" 
d="M116 796v-752c-4 -28 -18.333 -43 -43 -45h-73v758c0 24 13.667 37 41 39h75z" />
    <glyph glyph-name="J" unicode="J" horiz-adv-x="469" 
d="M417 796l-0.000976562 -552.001c0 -55.333 -16.833 -104.166 -50.5 -146.499s-77.167 -72.5 -130.5 -90.5c-28.667 -10 -61.667 -16 -99 -18c-48.667 -2.66699 -85.667 9.33301 -111 36c-18 18.667 -27 38.334 -27 59.001v67c31.333 -85.333 71.333 -129 120 -131
c34.667 -2 67.334 8.33301 98.001 31c28.667 21.333 50.334 48.666 65.001 81.999c13.333 30 20 74.333 20 133v493c-2.66699 22.667 10.666 35 39.999 37h75z" />
    <glyph glyph-name="K" unicode="K" horiz-adv-x="629" 
d="M0 798v-798h81c23.333 -0 36 8.33301 38 25v299c2 14 6.66699 21 14 21c5.33301 0 10.666 -2.66699 15.999 -8l276 -302c20 -21.333 46 -33 78 -35h78l-367 435l364 363h-62c-11.333 1.33301 -26.666 -9 -45.999 -31l-304 -350c-12.667 -11.333 -23 -17 -31 -17
c-10 0 -15.333 7.66699 -16 23v331c4 27.333 -13.667 42 -53 44h-66z" />
    <glyph glyph-name="L" unicode="L" horiz-adv-x="584" 
d="M1 797v-796.999h495c22.667 2.66699 34.667 17 36 43v80c-18.667 -36.667 -55.667 -62.667 -111 -78c-60 -13.333 -160.333 -20 -301 -20v738c0 21.333 -10.333 32.666 -31 33.999h-88z" />
    <glyph glyph-name="M" unicode="M" horiz-adv-x="861" 
d="M726 797c-5.33301 -0.666992 -10.334 -2.33203 -15.001 -4.99902c-11.333 -6 -20 -17 -26 -33l-265 -708l-259 718c-9.33301 19.333 -24.333 28.666 -45 27.999v0h-64v0h-26l-26 -797c5.33301 0 10 1 14 3c10 3.33301 15.667 9.66602 17 18.999l87 656l204 -643
c12 -27.333 23.333 -39 34 -35h63c3.33301 0.666992 6.33301 1.66699 9 3c7.33301 4.66699 13 12.334 17 23.001l251 632v-615c0.666992 -8 2.33398 -14.667 5.00098 -20c6 -14 16.667 -21.667 32 -23h77v797h-84z" />
    <glyph glyph-name="N" unicode="N" horiz-adv-x="602" 
d="M1 -1l0.000976562 797.999h73c22.667 0 41.334 -11.333 56.001 -34c7.33301 -10.667 134 -241.667 380 -693l-17 671c-3.33301 34.667 4 53.334 22 56.001h43l-26 -797h-75c-16.667 0 -32.334 11 -47.001 33c-6.66699 11.333 -119.334 215 -338.001 611l-47 -599
c-2 -24.667 -10 -40 -24 -46z" />
    <glyph glyph-name="O" unicode="O" horiz-adv-x="692" 
d="M337 807c-82.667 0 -156.166 -36 -220.499 -108s-102.166 -161.333 -113.499 -268c-2 -18 -3 -36.333 -3 -55c0 -97.333 25.667 -183.333 77 -258c57.333 -85.333 132.666 -128 225.999 -128c82.667 0 156.167 36 220.5 108s102.166 161.333 113.499 268
c2 18 3 36.333 3 55c0 97.333 -25.667 183.333 -77 258c-58 85.333 -133.333 128 -226 128zM538.001 385c-5.33301 -104 -30.333 -191.833 -75 -263.5s-96 -106.167 -154 -103.5c-58 3.33301 -105.667 42.833 -143 118.5s-53.333 165.5 -48 269.5
c5.33301 104.667 30.333 192.834 75 264.501s96 105.834 154 102.501c58 -2.66699 105.667 -41.834 143 -117.501s53.333 -165.834 48 -270.501z" />
    <glyph glyph-name="P" unicode="P" 
d="M513 645c-35.333 87.333 -125.667 136.667 -271 148c-35.333 3.33301 -102.333 5 -201 5c-27.333 -2 -41 -13.667 -41 -35v-763h67c8 0.666992 15 1.66699 21 3c14.667 4.66699 24.667 12 30 22v274c99.333 0 174.333 7 225 21c30 8.66699 58.333 23 85 43
c22.667 16.667 43.667 40 63 70c26 42 39 85 39 129c0 28 -5.66699 55.667 -17 83zM316.999 371.001c-34.667 -23.333 -80.666 -36.668 -137.999 -40.001c-24 -1.33301 -45 -2.33301 -63 -3v394c-2.66699 28.667 10.666 44.334 39.999 47.001c41.333 0 73.333 -3 96 -9
c46.667 -12 85.667 -36.667 117 -74c29.333 -34 44 -76.333 44 -127c0 -81.333 -32 -144 -96 -188z" />
    <glyph glyph-name="Q" unicode="Q" horiz-adv-x="712" 
d="M456 31c50.667 30.667 93.834 74.3301 129.501 130.997s58.5 120.334 68.5 191.001c3.33301 24 5 47.667 5 71c0 98.667 -26.667 185 -80 259c-59.333 83.333 -136 125 -230 125c-83.333 0 -158 -34.667 -224 -104s-106.333 -156 -121 -260
c-3.33301 -24 -5 -47.667 -5 -71c0 -98 25.667 -183.167 77 -255.5s116.666 -114.166 195.999 -125.499c20 -2.66699 40.333 -3 61 -1c0 -0.666992 6 -3 18 -7c24 -8.66699 45.333 -18.667 64 -30c86 -53.333 147.667 -79.666 185 -78.999c5.33301 0 8 1.33301 8 4
c0 4 -6.66699 10.333 -20 19c-89.333 54.667 -134 96 -134 124c0 2.66699 0.666992 5.66699 2 9zM301 17.9961c-55.333 3.33301 -101.5 38.833 -138.5 106.5s-55.5 149.5 -55.5 245.5c0 89.333 19 176.333 57 261c47.333 108 110.333 159.333 189 154
c56 -4 102.333 -39.833 139 -107.5s55 -149.5 55 -245.5c0 -89.333 -18.667 -176.333 -56 -261c-48 -107.333 -111.333 -158.333 -190 -153z" />
    <glyph glyph-name="R" unicode="R" 
d="M460 718c-29.333 32 -78 54.334 -146 67.001c-3.33301 0.666992 -39.666 4 -108.999 10c-14.667 1.33301 -68 2 -160 2c-8 -0.666992 -15 -2.33398 -21 -5.00098c-14 -7.33301 -22 -20.333 -24 -39v-753h88c21.333 2 32 15.333 32 40v263h87c3.33301 0 7 -1 11 -3
c8.66699 -4 16.334 -11.667 23.001 -23l148 -233c23.333 -32.667 44.666 -47 63.999 -43l75 -1l-210 307c41.333 12 76.666 27.333 105.999 46c70 45.333 105 105 105 179v8c0 68 -23 127.333 -69 178zM256 334.001c-50.667 -5.33301 -96 -6.66699 -136 -4v409
c0 20.667 12.667 32 38 34c40.667 0 75 -4 103 -12c45.333 -13.333 83 -41.166 113 -83.499s45 -87.5 45 -135.5c0 -44.667 -16 -89.334 -48 -134.001c-34.667 -48 -73 -72.667 -115 -74z" />
    <glyph glyph-name="S" unicode="S" 
d="M528 664c1.33301 62.667 -3.66992 101.003 -15.0029 115.003c-13.333 11.333 -32 18.666 -56 21.999c-1.33301 0.666992 -22.333 2.33398 -63 5.00098h-46c-41.333 0 -75.666 -2 -102.999 -6c-68 -8.66699 -120 -28 -156 -58c-52.667 -42.667 -79 -92.334 -79 -149.001
c0 -41.333 5.66699 -72.333 17 -93c13.333 -26 35.333 -51 66 -75c27.333 -22.667 80 -53.667 158 -93c46.667 -24 81 -48.667 103 -74c18 -21.333 27 -47 27 -77c0 -55.333 -41 -103.666 -123 -144.999c-23.333 -11.333 -49.666 -17 -78.999 -17
c-71.333 0 -131 43.333 -179 130v-94c0 -27.333 21 -45 63 -53c38 -7.33301 74.333 -11 109 -11c64.667 0 124.334 12.667 179.001 38c62.667 29.333 107.667 68 135 116c9.33301 17.333 14 38.666 14 63.999c0 20.667 -3.33301 40 -10 58c-10 26.667 -35.333 56.667 -76 90
c-28 22.667 -77.333 53.667 -148 93c-63.333 35.333 -106 68.666 -128 99.999c-10.667 15.333 -16 36.666 -16 63.999c0 37.333 15 71.333 45 102c39.333 40 93.333 60 162 60c20.667 0 41 -2.33301 61 -7c34 -6.66699 65 -22 93 -46c24 -20 39 -39.667 45 -59z" />
    <glyph glyph-name="T" unicode="T" horiz-adv-x="719" 
d="M278 0v653.001c0 4 0.333008 11 1 21s1 17.667 1 23c0 50 -17.333 74.667 -52 74c-46.667 0 -76 -1 -88 -3c-38 -4.66699 -66.333 -16.334 -85 -35.001c-16.667 -14.667 -35 -33 -55 -55v99c-0 12.667 8.33301 19.667 25 21c46.667 1.33301 246 1.33301 598 0
c28 0 43 -10.333 45 -31v-85c-26.667 36.667 -54.334 61.667 -83.001 75c-21.333 8.66699 -66.666 12.667 -135.999 12c-26.667 -0.666992 -43.667 -9.66699 -51 -27c-4 -10 -6 -31.333 -6 -64v-638c0 -24.667 -11 -38 -33 -40h-81z" />
    <glyph glyph-name="U" unicode="U" horiz-adv-x="633" 
d="M15 795h97.0039c13.333 -1.33301 18.333 -16.333 15 -45c-2 -14 -4 -69.333 -6 -166c-2 -81.333 -3.33301 -162 -4 -242c-0.666992 -66 2.66602 -117 9.99902 -153c14 -71.333 46.333 -119.333 97 -144c26 -12.667 52.667 -19 80 -19c46 0 82.667 17 110 51
c24 29.333 40 67.666 48 114.999c4.66699 26.667 7 56 7 88s-3.66699 82.667 -11 152c-0.666992 9.33301 -6.66699 112.666 -18 309.999c-1.33301 5.33301 -2 10.333 -2 15c0 24 13.667 36.667 41 38h71c7.33301 -60 14 -127.667 20 -203c8 -100.667 12 -177 12 -229
c0 -88 -9 -155.333 -27 -202c-14 -37.333 -30.667 -67 -50 -89c-25.333 -28 -48 -47.333 -68 -58c-22.667 -11.333 -66.334 -20 -131.001 -26c-32 -2.66699 -69.333 3.33301 -112 18c-96 32.667 -156 97.667 -180 195c-6.66699 26.667 -11.334 87 -14.001 181
c-0.666992 28 -0.333984 61.333 0.999023 100c4 62.667 7 116.334 9 161.001c1.33301 50.667 3 101.334 5 152.001z" />
    <glyph glyph-name="V" unicode="V" horiz-adv-x="669" 
d="M1 798h60.001c33.333 5.33301 57.333 -15 72 -61l178 -672l197 688c8 28 21.333 43 40 45h69l-284 -765c-4.66699 -20 -22.334 -31 -53.001 -33h-69z" />
    <glyph glyph-name="W" unicode="W" horiz-adv-x="1106" 
d="M0 798l68.999 0.00195312c28.667 5.33301 51.334 -19.334 68.001 -74.001c8 -30.667 60.667 -255.667 158 -675l138 685c5.33301 25.333 19 39 41 41h77c16.667 -2.66699 29 -10 37 -22c3.33301 -6.66699 82.333 -241.334 237 -704.001l126 708c4 25.333 15 39 33 41h79
l-223 -798h-89c-18 0 -37.333 26 -58 78l-219 583l-154 -605c-9.33301 -37.333 -27.333 -56 -54 -56h-83z" />
    <glyph glyph-name="X" unicode="X" horiz-adv-x="631" 
d="M7 797h77.001c17.333 0 33 -9.66699 47 -29c6 -9.33301 66.333 -111 181 -305l145 305c5.33301 18 17 27.667 35 29h88l-244 -341c-8 -11.333 -10 -21 -6 -29l249 -427h-80c-16 -0 -30 8.33301 -42 25l-184 315l-142 -308c-9.33301 -19.333 -22.333 -30 -39 -32h-92
l247 357c5.33301 10 5.66602 19.667 0.999023 29c-4 9.33301 -84.333 146.333 -241 411z" />
    <glyph glyph-name="Y" unicode="Y" horiz-adv-x="632" 
d="M0 798l91.999 0.00195312c13.333 0 24.333 -6.33301 33 -19c4.66699 -6.66699 74.334 -150 209.001 -430l148 409c6 24.667 17 38 33 40h65l-214 -444c-10 -16 -15.333 -44 -16 -84c0.666992 -46.667 0.666992 -122.334 0 -227.001c0 -8 -1.33301 -14.333 -4 -19
c-8 -16 -22.333 -24 -43 -24h-72v266c2.66699 20 -3.33301 45 -18 75c-6.66699 13.333 -77.667 165.666 -213 456.999z" />
    <glyph glyph-name="Z" unicode="Z" horiz-adv-x="581" 
d="M0 676l-0.00195312 83c-5.33301 22.667 8.33398 35 41.001 37h488l-379 -727c-5.33301 -10.667 -8 -19.334 -8 -26.001c0 -12 6.33301 -18.667 19 -20c30 -2 97.667 -2 203 0c40.667 0.666992 73 8.33398 97 23.001c10.667 6.66699 33.334 30 68.001 70v-87
c0 -18.667 -10.333 -28.667 -31 -30h-502l384 727c6.66699 10 10 18.667 10 26c0 11.333 -8.33301 17.333 -25 18h-189c-73.333 -0.666992 -132 -32 -176 -94z" />
    <glyph glyph-name="bracketleft" unicode="[" horiz-adv-x="279" 
d="M-1 -96l205 -0.00195312c12.667 2.66699 19 6.33398 19 11.001c0 4 -3.66699 7.66699 -11 11c-28 4 -56.333 8.33301 -85 13c-42.667 6.66699 -64 21.334 -64 44.001v876l151 25c8 4 12.333 7.33301 13 10c0 6.66699 -6.66699 10 -20 10
c-20 0.666992 -78.667 0.666992 -176 0c-20 -0.666992 -30.667 -10.667 -32 -30v-970z" />
    <glyph glyph-name="backslash" unicode="\" horiz-adv-x="353" 
d="M40 796c-27.333 -10.667 -41 -24.667 -41 -42c0 -2.66699 0.333008 -5 1 -7l262 -645c2.66699 -13.333 10 -21 22 -23l18 -4z" />
    <glyph glyph-name="bracketright" unicode="]" horiz-adv-x="278" 
d="M227 -96l-203.998 -0.00195312c-12.667 2.66699 -19 6.33398 -19 11.001c0 4 3.33301 7.66699 10 11c28.667 4 57 8.33301 85 13c42.667 6.66699 64 21.334 64 44.001v876l-150 25c-8.66699 4 -13.334 7.33301 -14.001 10c0 6.66699 7 10 21 10
c20 0.666992 78.667 0.666992 176 0c19.333 -0.666992 29.666 -10.667 30.999 -30v-970z" />
    <glyph glyph-name="asciicircum" unicode="^" horiz-adv-x="413" 
d="M180 562l-165.999 -296.002c-2.66699 -4 -6.33398 -10.667 -11.001 -20c-2 -3.33301 -2.33301 -5.66602 -1 -6.99902c3.33301 -4 8.33301 -1.33301 15 8l31 44l10 14l123 173l163 -226c11.333 -15.333 17 -18.666 17 -9.99902c0 4 -1 9.33301 -3 16z" />
    <glyph glyph-name="underscore" unicode="_" horiz-adv-x="677" 
d="M480 -94h-336h336zM-1 -94v39c0 20 13.333 30.667 40 32h583v-44c-2.66699 -16.667 -15 -25.667 -37 -27h-586z" />
    <glyph glyph-name="a" unicode="a" horiz-adv-x="540" 
d="M442 577c-23.333 31.333 -54 50.999 -92 58.999c-14 3.33301 -30 5.33301 -48 6c-51.333 2 -99.666 -10.667 -144.999 -38c-16 -9.33301 -31 -19 -45 -29c-27.333 -20 -49.666 -40 -66.999 -60c-9.33301 -11.333 -14 -18.666 -14 -21.999c0 -2 0.666992 -3.66699 2 -5
c5.33301 -3.33301 19.666 3.33398 42.999 20.001l63 46c26.667 19.333 49 32 67 38c14 4.66699 28.667 7 44 7c18 0 36.333 -3 55 -9c46.667 -14.667 70 -73.667 70 -177c0 -12.667 -0.333008 -26.5 -1 -41.5s-1 -22.833 -1 -23.5c0 -4 -1.66699 -6 -5 -6
c-6 0 -15.333 5.66699 -28 17c-21.333 19.333 -48.333 34.666 -81 45.999c-22 8 -44.667 12 -68 12c-32.667 0 -61.667 -7.33301 -87 -22c-69.333 -40 -104 -106.333 -104 -199c0 -40 7.33301 -77.667 22 -113c10 -24 24 -43 42 -57c22 -17.333 50 -26 84 -26
c24.667 -0 49 4.33301 73 13c21.333 7.33301 40.666 17.333 57.999 30c34 24.667 66.667 61 98 109v-117c2 -23.333 14.667 -35 38 -35h43h30v303c0 74 -2.33301 131.167 -7 171.5s-17.667 74.5 -39 102.5zM354 169.999c-44 -73.333 -93.332 -106.666 -147.999 -99.999
c-55.333 6.66699 -86 48.334 -92 125.001c-3.33301 43.333 1.66699 82 15 116c5.33301 14.667 15.666 29.167 30.999 43.5s30.333 22.5 45 24.5c24.667 3.33301 51 -3.33398 79 -20.001c16.667 -9.33301 34.5 -24.333 53.5 -45s31.5 -39.667 37.5 -57c2 -6 3 -12.333 3 -19
c0 -18.667 -8 -41.334 -24 -68.001z" />
    <glyph glyph-name="b" unicode="b" horiz-adv-x="576" 
d="M523 382c-3.33301 34.667 -9.00391 66.999 -17.0039 96.999c-19.333 74.667 -49.333 123.334 -90 146.001c-16 8.66699 -33.333 13 -52 13c-43.333 0 -83.666 -18.667 -120.999 -56s-73.666 -94.666 -108.999 -171.999c-6 -13.333 -11 -20 -15 -20
c-3.33301 0 -5 7.33301 -5 22v450h-82c-5.33301 -0.666992 -10 -2.33398 -14 -5.00098c-10.667 -6.66699 -16.667 -18.667 -18 -36v-821h63c37.333 -0 56 28.333 56 85c0 9.33301 -0.333008 18 -1 26c0.666992 -7.33301 19.334 -25.333 56.001 -54
c49.333 -39.333 94 -59 134 -59c20 0 39 4.33301 57 13c34.667 16 65.334 43.667 92.001 83c24 35.333 41.667 74.333 53 117c14.667 56.667 19 113.667 13 171zM307.996 67.999c-15.333 -7.33301 -30.6699 -10.998 -46.0029 -10.998c-39.333 0 -73.666 21.333 -102.999 64
c-25.333 37.333 -39.666 77 -42.999 119c-2.66699 41.333 6.33301 85.666 27 132.999c18.667 42 43.334 79.333 74.001 112c38 40 71.667 60 101 60c34.667 0 61.667 -28.333 81 -85c12.667 -38.667 19 -72.667 19 -102c0 -63.333 -2.33301 -107.333 -7 -132
c-14.667 -78.667 -49 -131.334 -103 -158.001z" />
    <glyph glyph-name="c" unicode="c" horiz-adv-x="519" 
d="M461 470c4 32 6.00195 54.333 6.00195 67c-1.33301 35.333 -12 59.333 -32 72c-35.333 22 -76.333 33 -123 33c-42 0 -81.667 -10.333 -119 -31c-92.667 -52 -153 -135.333 -181 -250c-8 -34.667 -12 -66.334 -12 -95.001c0 -38.667 7.33301 -77 22 -115
c29.333 -76.667 76.333 -125 141 -145c22.667 -7.33301 47 -11 73 -11c40 0 79.667 8 119 24s71.333 37.667 96 65c8 9.33301 12 15.666 12 18.999c0 1.33301 -0.666992 2 -2 2c-4 0 -14 -5 -30 -15c-24.667 -15.333 -43.667 -26 -57 -32c-22 -9.33301 -45 -14 -69 -14
c-42.667 0 -80 13.667 -112 41c-50.667 42.667 -76 106.334 -76 191.001c0 39.333 5.66699 77.333 17 114c16 48 38 93.333 66 136c38.667 59.333 80 89 124 89c39.333 0 74.666 -26 105.999 -78c17.333 -29.333 27.666 -51.666 30.999 -66.999z" />
    <glyph glyph-name="d" unicode="d" horiz-adv-x="593" 
d="M542 824c-1.33301 26 -11 39.001 -29 39.001h-84v-39v0v-290c0 -17.333 -3.33301 -26 -10 -26c-4.66699 0 -11 6.33301 -19 19c-54.667 76 -112.334 114 -173.001 114c-20 0 -39.333 -4.66699 -58 -14c-27.333 -18 -52 -40.333 -74 -67
c-51.333 -64 -83.333 -145.667 -96 -245c-4.66699 -210 61 -315 197 -315c20.667 3.33301 42.334 12.333 65.001 27c54.667 35.333 110.667 97.666 168 186.999v-179c2 -23.333 15.667 -35 41 -35h72v824zM426 313.001c-5.33301 -50.667 -32.001 -104.333 -80.001 -161
c-24 -29.333 -51 -53 -81 -71c-14 -8.66699 -28 -13 -42 -13c-30 0 -55 17.333 -75 52c-28.667 48 -43 107.333 -43 178c0 48 7.66699 94.667 23 140c24.667 76.667 53.334 127.667 86.001 153c10.667 8 22 12 34 12c26 0 55 -19.667 87 -59
c27.333 -32.667 48.333 -62 63 -88c24.667 -43.333 34 -91 28 -143z" />
    <glyph glyph-name="e" unicode="e" horiz-adv-x="538" 
d="M393 49c-37.333 -21.333 -69.667 -32 -97 -32c-8 -0.666992 -15.667 -1 -23 -1c-66.667 0 -113.334 29.667 -140.001 89c-10.667 24.667 -17 54 -19 88l1 89h329c26.667 2.66699 41 18 43 46c0 36 -9 79.333 -27 130c-13.333 38 -31.333 71.167 -54 99.5
s-46.667 49.5 -72 63.5c-22.667 12.667 -47 19 -73 19c-63.333 0 -119 -30.333 -167 -91c-62.667 -79.333 -94 -169.333 -94 -270c0 -73.333 19.333 -136.333 58 -189c33.333 -46.667 79.333 -76 138 -88c28.667 -6 54 -9 76 -9c56 0 109 16.333 159 49
c30 20 45 35.333 45 46c0 4.66699 -2.33301 7 -7 7s-14.667 -5.33301 -30 -16c-23.333 -16 -38.666 -26 -45.999 -30zM179.999 583c22 16.667 45.333 24.998 70 24.998c42 0 73.333 -21 94 -63c19.333 -39.333 30.666 -92.666 33.999 -159.999
c0.666992 -23.333 0.333984 -39.666 -0.999023 -48.999c-0.666992 -4.66699 -2 -8.66699 -4 -12c-5.33301 -8.66699 -13.333 -14.334 -24 -17.001h-235c1.33301 92 2.33301 141.333 3 148c7.33301 58.667 28.333 101.334 63 128.001z" />
    <glyph glyph-name="f" unicode="f" horiz-adv-x="537" 
d="M485 718v84.002c3.33301 18.667 -8.66699 34.667 -36 48c-38.667 16.667 -77.334 24 -116.001 22c-54 -3.33301 -102.667 -31 -146 -83c-24 -29.333 -42.333 -63.333 -55 -102c-5.33301 -16.667 -9 -35.334 -11 -56.001c-0.666992 -6 -1.66699 -27.333 -3 -64
c-2 -38.667 -2.66699 -58 -2 -58h-92c-15.333 0 -23.333 -14.667 -24 -44h90c16 0 24.667 -12 26 -36v-429h84c19.333 0 29.666 10.333 30.999 31v430h190c10.667 3.33301 16 6.33301 16 9c0 5.33301 -10.667 9.66602 -32 12.999l-77 12c-30 4 -52.333 8 -67 12
c-20 6 -30 29 -30 69c0 103.333 14 176.333 42 219c20.667 32 48.334 48 83.001 48c38.667 0 70.334 -20.667 95.001 -62c10.667 -16.667 22 -37.667 34 -63z" />
    <glyph glyph-name="g" unicode="g" horiz-adv-x="653" 
d="M534 7c-44 28 -112.33 55.335 -204.997 82.002l-89 23c-44 11.333 -66 23.666 -66 36.999c0 7.33301 5.66699 15.333 17 24c25.333 20 47.333 35.333 66 46c9.33301 -1.33301 21.333 -2 36 -2c58 0 108.667 13.333 152 40c29.333 18 52 43.167 68 75.5
s24 66.166 24 101.499c0 42.667 -10.333 78.667 -31 108c-10 13.333 -15 24 -15 32c0 10.667 8.66699 16.667 26 18h38c7.33301 0 20.666 0.666992 39.999 2c4.66699 4 7 7.33301 7 10c0 6 -11.333 9.33301 -34 10c-47.333 1.33301 -92.333 2.66602 -135 3.99902
c-20 0.666992 -31.667 1 -35 1c-14.667 1.33301 -26 4 -34 8c-18.667 8.66699 -40.667 12.334 -66 11.001c-47.333 -2 -92 -14.333 -134 -37c-46.667 -26 -78.334 -59.667 -95.001 -101c-9.33301 -22 -14 -45.333 -14 -70c0 -40 10.833 -77.167 32.5 -111.5
s50.167 -58.5 85.5 -72.5c11.333 -4 20.666 -6.66699 27.999 -8c4.66699 0 7 -2.33301 7 -7c0 -5.33301 -5.66699 -11.333 -17 -18l-73 -41c-35.333 -24 -53 -46.667 -53 -68c0 -16.667 9 -30 27 -40c22.667 -12.667 56.667 -21.667 102 -27
c-120 -27.333 -184.667 -78 -194 -152c0 -46.667 39.667 -82.667 119 -108c57.333 -18.667 114.333 -28 171 -28c46.667 0 95.167 8.16699 145.5 24.5s90.833 37.833 121.5 64.5c24.667 22 38.667 46.333 42 73c4 34 -17.667 66 -65 96zM187.003 429.002
c0 50 10.667 92.667 32 128s47 53 77 53s55.667 -17.667 77 -53s32 -78 32 -128s-10.667 -92.667 -32 -128s-47 -53 -77 -53s-55.667 17.667 -77 53s-32 78 -32 128zM440.003 -176.998c-38 -28 -85.668 -41.999 -143.001 -41.999c-66 0 -114.667 19 -146 57
c-10.667 13.333 -16 28.666 -16 45.999c0 15.333 4 32.666 12 51.999c10.667 24 21 41.333 31 52c20.667 24 45 36 73 36c12 0 37.333 -4.66699 76 -14s72.334 -23 101.001 -41c36 -23.333 54 -48.666 54 -75.999c0 -26 -14 -49.333 -42 -70z" />
    <glyph glyph-name="h" unicode="h" horiz-adv-x="536" 
d="M0 863v-862.004h73c26.667 0 41 14.667 43 44v215c0 28.667 5.5 60.334 16.5 95.001s34.167 75 69.5 121c21.333 28.667 36.333 47.334 45 56.001c20.667 21.333 40.334 32.333 59.001 33c42 2 63 -34.333 63 -109c-1.33301 -84.667 -1.33301 -224 0 -418
c0 -23.333 10 -35.666 30 -36.999h85v353c0 28 0 38.667 0 32c-0.666992 44.667 -4.33398 83.334 -11.001 116.001c-8 36 -21.333 66.667 -40 92c-22 29.333 -48 44 -78 44c-12 0 -24.333 -2.33301 -37 -7c-75.333 -30 -143.333 -114.333 -204 -253v440
c0 28 -13.667 43 -41 45h-73z" />
    <glyph glyph-name="i" unicode="i" horiz-adv-x="169" 
d="M118 764c0 -16 -5.66699 -29.5 -17 -40.5s-25 -16.5 -41 -16.5s-29.5 5.5 -40.5 16.5s-16.5 24.5 -16.5 40.5s5.5 29.667 16.5 41s24.5 17 40.5 17s29.667 -5.66699 41 -17s17 -25 17 -41zM116 638l0.000976562 -609.001c3.33301 -17.333 -8 -26.666 -34 -27.999h-82v599
c-2.66699 24 10.666 36.667 39.999 38h76z" />
    <glyph glyph-name="j" unicode="j" horiz-adv-x="396" 
d="M346 765c0 -16.667 -5.5 -30.667 -16.5 -42s-24.5 -17 -40.5 -17s-29.667 5.66699 -41 17s-17 25.333 -17 42c0 16 5.66699 29.667 17 41s25 17 41 17s29.5 -5.66699 40.5 -17s16.5 -25 16.5 -41zM345 638l-75 0.000976562c-24 0 -37 -11.667 -39 -35
c-2 -51.333 -2 -261.333 0 -630c0.666992 -80.667 -7.66602 -134.334 -24.999 -161.001c-20 -21.333 -40.333 -32 -61 -32c-31.333 0 -66 23 -104 69c-24.667 29.333 -38.334 50 -41.001 62v-79c0 -26 17 -46 51 -60c30 -12.667 60 -19 90 -19c29.333 0 55 6.33301 77 19
c85.333 49.333 128 163.333 128 342v70c-0.666992 312.667 -1 464 -1 454z" />
    <glyph glyph-name="k" unicode="k" horiz-adv-x="584" 
d="M0 862v-862h91c14.667 4 22.334 12 23.001 24c1.33301 20.667 1.33301 94 0 220c0 12.667 3.33301 19 10 19c4.66699 0 10.334 -3 17.001 -9c9.33301 -8 91.666 -86.333 246.999 -235c12 -11.333 27 -17.666 45 -18.999h99l-344 328l343 310h-50
c-6.66699 0 -20.334 -9.33301 -41.001 -28c-11.333 -8.66699 -104.333 -102.334 -279 -281.001c-14.667 -16 -26 -24 -34 -24s-12 7 -12 21c-0.666992 60 -0.666992 226.667 0 500c0 22.667 -9.33301 34.667 -28 36h-87z" />
    <glyph glyph-name="l" unicode="l" horiz-adv-x="171" 
d="M118 862v-821.999c0 -24.667 -16.333 -38 -49 -40h-69v825c0 23.333 11 35.666 33 36.999h85z" />
    <glyph glyph-name="m" unicode="m" horiz-adv-x="860" 
d="M0 637l85.002 0.00292969c18 -2.66699 28 -14 30 -34v-297c66.667 144 113.667 234.667 141 272c33.333 39.333 64.333 59 93 59c20.667 0 41 -9.33301 61 -28c24 -22 39 -51.667 45 -89c8.66699 -50.667 11.334 -128.334 8.00098 -233.001c12.667 34 28.667 72 48 114
c39.333 84 77.666 146 114.999 186c29.333 32 57.666 48 84.999 48c28.667 0 52.667 -15.667 72 -47c16.667 -27.333 25 -56.666 25 -87.999v-501h-78c-23.333 0 -36 14 -38 42v441c0 15.333 -2.66699 28.666 -8 39.999c-8 14.667 -19 21 -33 19
c-15.333 -2 -33.333 -18.667 -54 -50c-56 -84.667 -94.667 -170.334 -116 -257.001c-10 -28.667 -15.333 -66 -16 -112v-89c4.66699 -20.667 -9.33301 -32 -42 -34h-79v491c0 34.667 -9.66699 52.334 -29 53.001c-22.667 1.33301 -44.334 -12 -65.001 -40
c-5.33301 -6.66699 -19.333 -30.334 -42 -71.001c-14.667 -26.667 -41 -82 -79 -166c-8 -18.667 -12.333 -37.334 -13 -56.001v-174c-4.66699 -22.667 -15 -35 -31 -37h-85v638z" />
    <glyph glyph-name="n" unicode="n" horiz-adv-x="582" 
d="M1 638l73 0.999023c28.667 -2 41.667 -14 39 -36v-246c0 -14 1.66699 -21 5 -21s8 6 14 18l46 108c18.667 42 38 75.667 58 101c38.667 50 81 75 127 75c45.333 0 82.666 -16.333 111.999 -49c36.667 -52.667 55 -117.667 55 -195v-393h-84
c-20.667 1.33301 -31 11 -31 29v444c0 26 -6.16699 47.5 -18.5 64.5s-28.166 25.5 -47.499 25.5c-15.333 0 -31.333 -5.33301 -48 -16c-31.333 -20.667 -61 -53 -89 -97c-2 -3.33301 -23.667 -42.666 -65 -117.999c-22 -44 -33 -75.667 -33 -95
c1.33301 -110 1.33301 -179 0 -207c0 -5.33301 -1 -10.333 -3 -15c-5.33301 -10 -14 -15 -26 -15l-85 -1l1 638v0z" />
    <glyph glyph-name="o" unicode="o" horiz-adv-x="556" 
d="M263 641c-78.667 0 -143.665 -37.667 -194.998 -113c-45.333 -66.667 -68 -141.334 -68 -224.001c0 -77.333 20.667 -146.333 62 -207c46 -68 106.333 -102 181 -102c79.333 0 144.666 37.667 195.999 113c45.333 66.667 68 141.334 68 224.001
c0 77.333 -20.667 146.333 -62 207c-46.667 68 -107.334 102 -182.001 102zM391.002 319c-2 -82.667 -17.5 -152.499 -46.5 -209.499s-62.833 -85.167 -101.5 -84.5c-38.667 1.33301 -71 31.333 -97 90s-38 129 -36 211s17.5 151.667 46.5 209s62.833 85.666 101.5 84.999
c38.667 -1.33301 71 -31.333 97 -90s38 -129 36 -211z" />
    <glyph glyph-name="p" unicode="p" horiz-adv-x="565" 
d="M508 438c-4.66699 28 -14.8311 57.167 -30.498 87.5s-32.834 54.833 -51.501 73.5c-24.667 25.333 -53.334 38 -86.001 38c-37.333 0 -78.666 -35.333 -123.999 -106c-24.667 -38 -48 -82 -70 -132c-2.66699 -6.66699 -7.33398 -16.667 -14.001 -30l-6 -14
c-4 -7.33301 -7.33301 -11 -10 -11s-4 6 -4 18v234c2.66699 25.333 -9 39 -35 41h-77v-889h88c16.667 12.667 25 31.667 25 57v310c0 -8 13 -27 39 -57c30.667 -36.667 63 -56 97 -58c36.667 -2 73 8.66699 109 32c18.667 12 36.334 28.333 53.001 49
c31.333 37.333 56.666 81.333 75.999 132c28 73.333 35 148.333 21 225zM400.003 287c-5.33301 -57.333 -18.333 -109.001 -39 -155.001c-29.333 -64.667 -65 -97 -107 -97c-25.333 0 -49 11.667 -71 35c-20.667 21.333 -39 51.333 -55 90c-12 28 -17.333 51.333 -16 70
c0.666992 10.667 3 22.667 7 36c42 101.333 77 177 105 227c6.66699 12.667 18 30 34 52c11.333 12 25 18 41 18c18 0 33.333 -7.33301 46 -22c15.333 -18 29.333 -48.333 42 -91c14.667 -49.333 19 -103.666 13 -162.999z" />
    <glyph glyph-name="q" unicode="q" horiz-adv-x="558" 
d="M391 604c0.666992 -44 0.671875 -76.667 0.00488281 -98c0 -9.33301 -1.33301 -14 -4 -14s-6 5.66699 -10 17c-4.66699 14.667 -21.334 37.334 -50.001 68.001c-36.667 39.333 -69.334 59 -98.001 59c-34 0 -64 -10.333 -90 -31s-52 -55.334 -78 -104.001
c-36.667 -68.667 -57.334 -162.667 -62.001 -282c-2 -58 9 -106.667 33 -146c31.333 -49.333 66.333 -74 105 -74c63.333 0 121 40 173 120c31.333 46.667 57.666 110.334 78.999 191.001v-498c0.666992 -5.33301 2 -10 4 -14c5.33301 -9.33301 14.666 -15.333 27.999 -18
h85v856c-28 -0.666992 -54.333 -1.33398 -79 -2.00098s-36.667 -10.667 -36 -30zM384.005 376c-3.33301 -16 -14.999 -48.333 -34.999 -97l-28 -71c-11.333 -26 -23 -48.333 -35 -67c-35.333 -56.667 -71.333 -85 -108 -85c-6.66699 0 -13 1 -19 3
c-29.333 12 -45.333 45.667 -48 101c-6 111.333 -1.33301 201.333 14 270c13.333 58 35 100 65 126c17.333 15.333 35.666 23 54.999 23c46 0 92.333 -39.333 139 -118c6 -10 9 -21.667 9 -35c0 -10 -3 -26.667 -9 -50z" />
    <glyph glyph-name="r" unicode="r" horiz-adv-x="490" 
d="M369 638c-50 0 -94.666 -25.666 -133.999 -76.999c-27.333 -35.333 -56.333 -87 -87 -155c-16 -35.333 -25.333 -52.333 -28 -51c-2 1.33301 -3 12 -3 32v211c2.66699 24 -10.333 37 -39 39h-78v-2v-636h99c13.333 5.33301 20.666 15.333 21.999 30v236
c0 17.333 8.66699 42.333 26 75c13.333 26.667 35.333 66 66 118c25.333 37.333 54.333 72.333 87 105c16 15.333 32.667 23 50 23c20 0 38.667 -10.333 56 -31c14 -16.667 24.667 -36.334 32 -59.001v98c0 29.333 -23 44 -69 44z" />
    <glyph glyph-name="s" unicode="s" horiz-adv-x="470" 
d="M418 493l-0.00195312 81c2 16.667 -4 31 -18 43c-11.333 10 -26 16 -44 18c-68.667 8.66699 -136 8.33398 -202 -0.999023c-43.333 -6.66699 -78.333 -20.667 -105 -42c-33.333 -26.667 -49.666 -63 -48.999 -109c0.666992 -30 10.667 -58 30 -84
c14.667 -18 35 -35.667 61 -53l51 -32c104.667 -74.667 156.334 -131.334 155.001 -170.001c-0.666992 -32 -14.667 -59.333 -42 -82s-57.333 -34 -90 -34c-37.333 0 -66.333 4.33301 -87 13c-30 12.667 -62.333 39 -97 79v-94c3.33301 -16 19.333 -24.333 48 -25
c8 0 20 -0.166992 36 -0.5s27.333 -0.833008 34 -1.5c84.667 0 148.667 3.66699 192 11c30.667 6 54.334 16.333 71.001 31c30 27.333 47 60 51 98c3.33301 36 -2 67 -16 93s-35.333 50.667 -64 74c-10.667 8.66699 -37.334 27.667 -80.001 57l-50 35
c-22 16 -37 27.333 -45 34c-16.667 14 -29.334 27.667 -38.001 41c-7.33301 11.333 -11 23.666 -11 36.999c0 18.667 6.5 36.834 19.5 54.501s29 30.334 48 38.001s40.5 11.5 64.5 11.5c22.667 0 45.334 -3.66699 68.001 -11c40.667 -12.667 77 -49.334 109 -110.001z" />
    <glyph glyph-name="t" unicode="t" horiz-adv-x="535" 
d="M117 806l76.0029 -0.000976562c26 0 40 -10.667 42 -32v-149c139.333 -9.33301 219 -16.666 239 -21.999c5.33301 -2.66699 8 -5 8 -7c0 -4 -8.33301 -6 -25 -6h-194c-18.667 2.66699 -28.667 -4.66602 -30 -21.999v-374c0 -42.667 1.66699 -72 5 -88
c7.33301 -34 23.666 -56 48.999 -66c14 -6 28 -9 42 -9c15.333 0 36 4.66699 62 14c5.33301 2 21.333 10.667 48 26c24.667 14.667 37.667 22 39 22c3.33301 0 5 -1.33301 5 -4c0 -4 -2.66699 -8.33301 -8 -13c-16 -16.667 -41 -33 -75 -49
c-42.667 -21.333 -82.667 -32 -120 -32c-36.667 0 -68.334 12.333 -95.001 37c-46.667 43.333 -68.667 96.333 -66 159v47v317c3.33301 21.333 -4.66699 32.666 -24 33.999h-95c-0.666992 30 7.66602 46 24.999 48h93z" />
    <glyph glyph-name="u" unicode="u" horiz-adv-x="534" 
d="M2 637l81.998 -0.00195312c22 0 33.667 -12.333 35 -37v-473c0 -36 16.667 -54 50 -54c8.66699 0 17.334 2 26.001 6c21.333 9.33301 42 29 62 59c40 60.667 68 114.334 84 161.001c10 29.333 17.667 61.333 23 96c4 28.667 6.33301 63.667 7 105
c0 35.333 0.333008 70.333 1 105c0.666992 21.333 7.66699 32 21 32h90v-637h-89c-15.333 0 -23.666 13 -24.999 39v277c0 -3.33301 -6 -22.666 -18 -57.999c-37.333 -109.333 -96.333 -189.666 -177 -240.999c-18.667 -11.333 -39 -17 -61 -17
c-23.333 0 -44.333 6.33301 -63 19s-31 30.667 -37 54c-2.66699 11.333 -6 41.333 -10 90c-2 21.333 -3 46.666 -3 75.999c-0 16.667 0.333008 40.334 1 71.001c0.666992 33.333 1 56.666 1 69.999v257z" />
    <glyph glyph-name="v" unicode="v" horiz-adv-x="654" 
d="M0 637l185 -637.002h83c15.333 -3.33301 31 8.33398 47 35.001c8 14 103.667 214.667 287 602h-88c-14 2 -26.333 -14.333 -37 -49c-4.66699 -17.333 -68.667 -205.666 -192 -564.999l-161 572c-7.33301 26 -23 40 -47 42h-77z" />
    <glyph glyph-name="w" unicode="w" horiz-adv-x="1023" 
d="M0 637l78 -0.00292969c18 2 32.333 -11.667 43 -41c5.33301 -15.333 54.333 -191.666 147 -528.999l176 514c7.33301 20.667 20.333 31.667 39 33h46c12.667 2.66699 22.334 -3.33301 29.001 -18l176 -551l114 553c4.66699 24 17 37 37 39h80l-220 -637h-73
c-12.667 -5.33301 -27 12.334 -43 53.001l-163 473l-182 -489c-8.66699 -23.333 -23.334 -35.666 -44.001 -36.999h-73z" />
    <glyph glyph-name="x" unicode="x" horiz-adv-x="538" 
d="M-1 637h83.002c22.667 0 39.667 -8.66699 51 -26l135 -229l92 225c5.33301 18.667 15.333 28.667 30 30h95c-4.66699 -7.33301 -12 -17.666 -22 -30.999l-147 -194c-20 -26.667 -30 -44 -30 -52c0 -5.33301 1.33301 -10.333 4 -15
c5.33301 -8.66699 70.666 -124 195.999 -346h-80c-12 -2 -23.667 4 -35 18c-5.33301 6.66699 -54 85 -146 235l-103 -223c-8.66699 -18.667 -23.334 -28.667 -44.001 -30h-79l200 264c4 5.33301 6 11.666 6 18.999s-2.16699 14.833 -6.5 22.5s-70.833 118.5 -199.5 332.5z
" />
    <glyph glyph-name="y" unicode="y" horiz-adv-x="602" 
d="M-5 638l89.002 0.00195312c15.333 0 28 -10.667 38 -32l209 -491l32 95c12.667 37.333 21.667 70 27 98l51 290c4.66699 16 7 24.333 7 25c4.66699 10 12.667 15 24 15h79l-154 -438c-15.333 -44 -39 -104.667 -71 -182c-27.333 -64.667 -61 -118 -101 -160
c-30.667 -32 -67.334 -54.333 -110.001 -67c-20.667 -6 -39.667 -9 -57 -9c-22 0 -38.667 5 -50 15c-6 5.33301 -9 16.666 -9 33.999v75c11.333 -22.667 29.5 -41.167 54.5 -55.5s49.5 -19.5 73.5 -15.5c40 5.33301 80 35.666 120 90.999c16 22.667 21.667 44 17 64
c-2.66699 9.33301 -92.334 225.333 -269.001 648z" />
    <glyph glyph-name="z" unicode="z" horiz-adv-x="540" 
d="M1 514l-0.00195312 95.999c-3.33301 16.667 9.33398 25.667 38.001 27h449l-337 -586c-4.66699 -6 -7 -10.667 -7 -14c0 -7.33301 6.66699 -11.333 20 -12c6.66699 0 22.334 -0.333008 47.001 -1l122 -1c52 0 89.667 11.667 113 35c7.33301 8 21.333 28.667 42 62v-95
c-2.66699 -15.333 -17.667 -23.666 -45 -24.999h-441l337 586c4.66699 6 7 11.333 7 16c0 8 -7.66699 12.333 -23 13h-45c-47.333 0 -85.333 -0.666992 -114 -2c-54.667 -2 -95.667 -13.667 -123 -35c-20 -16.667 -33.333 -38 -40 -64z" />
    <glyph glyph-name="braceleft" unicode="{" horiz-adv-x="284" 
d="M214 904c-37.333 -10.667 -71.166 -32.833 -101.499 -66.5s-49.5 -69.834 -57.5 -108.501c-5.33301 -26.667 -5.66602 -56.334 -0.999023 -89.001c5.33301 -33.333 15.333 -67.333 30 -102c10 -23.333 15 -41 15 -53s-3.66699 -21.667 -11 -29
c-8.66699 -9.33301 -28.334 -17.666 -59.001 -24.999c-19.333 -4 -29 -9.66699 -29 -17c0 -3.33301 2.66699 -6.66602 8 -9.99902s10.333 -5 15 -5c11.333 0 23 -3.66699 35 -11c16.667 -10.667 25 -25.667 25 -45c0 -4.66699 -0.333008 -9.66699 -1 -15l-27 -120
c-8.66699 -46.667 -11.334 -87.334 -8.00098 -122.001c4 -48 17.333 -85 40 -111c31.333 -36 72.666 -59 123.999 -69c9.33301 -1.33301 14 -0.333008 14 3c0 4 -6 10.667 -18 20c-68 30.667 -102 99.334 -102 206.001c0 42 5 83.667 15 125c6.66699 24 10 47.333 10 70
c0 37.333 -9.66699 61 -29 71c-10 4 -15.333 7.66699 -16 11c0 2 4.33301 6.66699 13 14s13.334 11.666 14.001 12.999c11.333 16.667 17 38.667 17 66c0 28 -8 68.667 -24 122c-4 13.333 -6 27.333 -6 42c0 66.667 36.333 135.334 109 206.001
c16.667 11.333 24.667 19.333 24 24c-0.666992 6 -6.66699 7.66699 -18 5z" />
    <glyph glyph-name="bar" unicode="|" horiz-adv-x="97" 
d="M0 883l-0.000976562 -977.001h31c8.66699 4.66699 13.334 13.334 14.001 26.001v974h-32c-8 0 -12.333 -7.66699 -13 -23z" />
    <glyph glyph-name="braceright" unicode="}" horiz-adv-x="284" 
d="M18 903c37.333 -10.667 71.167 -32.6689 101.5 -66.002s49.5 -69.333 57.5 -108c5.33301 -26.667 5.66602 -56.334 0.999023 -89.001c-4.66699 -33.333 -14.334 -67.333 -29.001 -102c-10 -23.333 -15 -41 -15 -53s3.66699 -21.667 11 -29
c8.66699 -9.33301 28.334 -17.666 59.001 -24.999c19.333 -4 29 -9.66699 29 -17c0 -4 -2.66699 -7.5 -8 -10.5s-10.333 -4.5 -15 -4.5c-11.333 0 -23 -3.66699 -35 -11c-17.333 -10.667 -26 -25.667 -26 -45c0 -4.66699 0.666992 -9.66699 2 -15l26 -120
c8.66699 -46.667 11.667 -87.334 9 -122.001c-4.66699 -48 -18.334 -85 -41.001 -111c-31.333 -36 -72.666 -59 -123.999 -69c-8.66699 -1.33301 -13 -0.333008 -13 3c0 4 5.66699 10.667 17 20c68 30.667 102 99.334 102 206.001c0 42 -5 83.333 -15 124
c-6 24.667 -9 48.334 -9 71.001c0 37.333 9.33301 61 28 71c10 4 15.333 7.66699 16 11c0 2 -3.66699 6.33301 -11 13c-9.33301 8 -14.666 12.667 -15.999 14c-11.333 16.667 -17 38.667 -17 66c0 28 8 68.667 24 122c4 13.333 6 27.333 6 42c0 66 -36.333 134.667 -109 206
c-16.667 11.333 -24.667 19 -24 23c0.666992 6.66699 6.66699 8.33398 18 5.00098z" />
    <glyph glyph-name="hyphen" unicode="&#xad;" horiz-adv-x="351" 
d="M0 370l285.999 -25.999c8.66699 0 13.334 -3.66699 14.001 -11c0 -8.66699 -24 -14.334 -72 -17.001l-202 -12c-15.333 -1.33301 -23.333 6.33398 -24 23.001c0 7.33301 -0.666992 21.666 -2 42.999z" />
    <glyph glyph-name="minus" unicode="&#x2212;" horiz-adv-x="350" 
d="M0 304v35.999c-0 18.667 6.33301 28.667 19 30h280v-41c0 -15.333 -6 -23.666 -18 -24.999h-281z" />
    <glyph glyph-name=".null" horiz-adv-x="0" 
 />
    <glyph glyph-name="nonmarkingreturn" horiz-adv-x="200" 
 />
    </font>
</defs>
</svg>
